<svg xmlns="http://www.w3.org/2000/svg" viewBox="0 0 100 100">
  <rect width="100" height="100" rx="22" fill="#111110"/>
  <path d="M50 18 C50 18 65 30 68 44 C70 54 65 62 58 66 C62 58 60 50 55 46 C56 52 53 57 50 60 C47 57 44 52 45 46 C40 50 38 58 42 66 C35 62 30 54 32 44 C35 30 50 18 50 18Z" fill="#B8935A"/>
  <path d="M50 34 C50 34 58 42 59 50 C60 56 57 61 54 63 C56 58 55 53 52 50 C52.5 54 51 57 50 59 C49 57 47.5 54 48 50 C45 53 44 58 46 63 C43 61 40 56 41 50 C42 42 50 34 50 34Z" fill="#D4AD78" opacity="0.85"/>
</svg>
